<?xml version="1.0" standalone="no"?>
<!DOCTYPE svg PUBLIC "-//W3C//DTD SVG 1.1//EN"
  "http://www.w3.org/Graphics/SVG/1.1/DTD/svg11.dtd">
<svg width="102mm" height="50mm" viewBox="308 -217 102 50" xmlns="http://www.w3.org/2000/svg" version="1.1">
	<title>svgOutput</title>
	<desc>made with tinkercad</desc>
<path d="M 409 -170.39999389648438 L 408.93798828125 -170.02499389648438 L 408.91754150390625 -169.98399353027344 L 408.7550048828125 -169.6580047607422 L 408.57598876953125 -169.4503631591797 L 408.4549865722656 -169.30999755859375 L 408.0450134277344 -168.98899841308594 L 407.9933776855469 -168.9600067138672 L 407.552001953125 -168.7119903564453 L 407.5360107421875 -168.7030029296875 L 406.9389953613281 -168.45799255371094 L 406.52801513671875 -168.33758544921875 L 406.2699890136719 -168.26199340820312 L 406.0159912109375 -168.21119689941406 L 405.5450134277344 -168.11700439453125 L 405.5039978027344 -168.11231994628906 L 404.99200439453125 -168.05393981933594 L 404.7820129394531 -168.02999877929688 L 404.4800109863281 -168.01841735839844 L 404 -168 L 403.45599365234375 -168 L 401.4079895019531 -168 L 397.31201171875 -168 L 395 -168 L 393.21600341796875 -168 L 389.1199951171875 -168 L 385.02398681640625 -168 L 380.9280090332031 -168 L 376.8320007324219 -168 L 375 -168 L 372.7359924316406 -168 L 368.6400146484375 -168 L 364.54400634765625 -168 L 361 -168 L 360.447998046875 -168 L 356.35198974609375 -168 L 352.2560119628906 -168 L 348.1600036621094 -168 L 344.0639953613281 -168 L 341 -168 L 339.9679870605469 -168 L 337 -168 L 335.87200927734375 -168 L 331.7760009765625 -168 L 327.67999267578125 -168 L 323.5840148925781 -168 L 319.4880065917969 -168 L 317 -168 L 315.3919982910156 -168 L 314.3680114746094 -168 L 314 -168 L 313.8559875488281 -168.00552368164062 L 313.343994140625 -168.02516174316406 L 313.2179870605469 -168.02999877929688 L 312.8320007324219 -168.0740203857422 L 312.4549865722656 -168.11700439453125 L 312.32000732421875 -168.1439971923828 L 311.7300109863281 -168.26199340820312 L 311.2959899902344 -168.38914489746094 L 311.0610046386719 -168.45799255371094 L 310.4639892578125 -168.7030029296875 L 310.2720031738281 -168.81088256835938 L 310.0066223144531 -168.9600067138672 L 309.9549865722656 -168.98899841308594 L 309.5450134277344 -169.30999755859375 L 309.40533447265625 -169.4720001220703 L 309.24798583984375 -169.65452575683594 L 309.2449951171875 -169.6580047607422 L 309.08245849609375 -169.98399353027344 L 309.06201171875 -170.02499389648438 L 309 -170.39999389648438 L 309 -172.03199768066406 L 309 -178 L 309 -180.2239990234375 L 309 -196.60800170898438 L 309 -212.99200439453125 L 309 -213.60000610351562 L 309.06201171875 -213.97500610351562 L 309.2449951171875 -214.3419952392578 L 309.24798583984375 -214.34547424316406 L 309.40533447265625 -214.5279998779297 L 309.5450134277344 -214.69000244140625 L 309.9549865722656 -215.01100158691406 L 310.0066223144531 -215.0399932861328 L 310.4639892578125 -215.2969970703125 L 311.0610046386719 -215.54200744628906 L 311.2959899902344 -215.61085510253906 L 311.7300109863281 -215.73800659179688 L 312.32000732421875 -215.8560028076172 L 312.4549865722656 -215.88299560546875 L 312.8320007324219 -215.9259796142578 L 313.2179870605469 -215.97000122070312 L 313.343994140625 -215.97483825683594 L 314 -216 L 315.3919982910156 -216 L 317 -216 L 319.4880065917969 -216 L 323.5840148925781 -216 L 327.67999267578125 -216 L 331.7760009765625 -216 L 335.87200927734375 -216 L 337 -216 L 339.9679870605469 -216 L 341 -216 L 344.0639953613281 -216 L 348.1600036621094 -216 L 352.2560119628906 -216 L 356.35198974609375 -216 L 360.447998046875 -216 L 361 -216 L 364.54400634765625 -216 L 368.6400146484375 -216 L 372.7359924316406 -216 L 375 -216 L 376.8320007324219 -216 L 385.02398681640625 -216 L 389.1199951171875 -216 L 393.21600341796875 -216 L 395 -216 L 397.31201171875 -216 L 401.4079895019531 -216 L 403.45599365234375 -216 L 404 -216 L 404.4800109863281 -215.98158264160156 L 404.7820129394531 -215.97000122070312 L 404.99200439453125 -215.94606018066406 L 405.5039978027344 -215.88768005371094 L 405.5450134277344 -215.88299560546875 L 406.0159912109375 -215.78880310058594 L 406.2699890136719 -215.73800659179688 L 406.52801513671875 -215.66241455078125 L 406.9389953613281 -215.54200744628906 L 407.5360107421875 -215.2969970703125 L 407.552001953125 -215.2880096435547 L 407.9933776855469 -215.0399932861328 L 408.0450134277344 -215.01100158691406 L 408.4549865722656 -214.69000244140625 L 408.57598876953125 -214.5496368408203 L 408.7550048828125 -214.3419952392578 L 408.91754150390625 -214.01600646972656 L 408.93798828125 -213.97500610351562 L 409 -213.60000610351562 L 409 -212.99200439453125 L 409 -208.89599609375 L 409 -204.8000030517578 L 409 -200.70399475097656 L 409 -196.60800170898438 L 409 -192.51199340820312 L 409 -188.41600036621094 L 409 -184.32000732421875 L 409 -180.2239990234375 L 409 -178 L 409 -176.1280059814453 L 409 -172.03199768066406 L 409 -171.00799560546875 L 409 -170.39999389648438 z" fill="none" stroke="rgb(255,0,0)" stroke-width="0.001mm" />
</svg>